<?xml version="1.0" standalone="no"?>
<!DOCTYPE svg PUBLIC "-//W3C//DTD SVG 20010904//EN"
 "http://www.w3.org/TR/2001/REC-SVG-20010904/DTD/svg10.dtd">
<svg version="1.0" xmlns="http://www.w3.org/2000/svg"
 width="333.000000pt" height="333.000000pt" viewBox="0 0 333.000000 333.000000"
 preserveAspectRatio="xMidYMid meet">
<metadata>
Created by potrace 1.14, written by Peter Selinger 2001-2017
</metadata>
<g transform="translate(0.000000,333.000000) scale(0.100000,-0.100000)"
fill="#000000" stroke="none">
<path d="M1565 2293 c-56 -7 -190 -54 -249 -87 l-58 -33 56 -27 c31 -15 56
-31 56 -36 0 -13 56 -22 90 -15 19 4 30 13 30 24 0 20 31 114 35 109 2 -2 -2
-31 -9 -65 l-13 -62 66 -34 c36 -18 89 -39 116 -46 28 -6 93 -31 145 -55 52
-23 130 -54 172 -68 85 -29 84 -30 40 52 -40 73 -113 172 -162 218 l-45 44 49
-34 c72 -50 159 -162 212 -274 18 -39 22 -42 103 -64 92 -25 251 -35 311 -20
31 8 33 8 16 -5 -10 -8 -24 -16 -30 -18 -13 -5 53 -77 71 -77 16 0 99 27 142
47 l33 15 -38 40 c-57 57 -228 189 -330 253 -235 148 -469 224 -679 222 -55 0
-113 -2 -130 -4z"/>
<path d="M790 2267 c-122 -15 -185 -65 -194 -153 -6 -70 1 -77 110 -104 54
-13 111 -24 126 -25 15 -1 30 -4 34 -7 8 -9 -82 0 -144 13 -83 19 -80 2 8 -57
55 -37 87 -50 176 -72 69 -17 198 -91 208 -119 3 -7 -20 3 -51 23 -67 43 -93
45 -164 12 -95 -45 -144 -112 -153 -206 -5 -56 -7 -55 72 -31 23 7 42 16 42
21 0 4 7 8 15 8 8 0 46 29 83 65 66 62 71 65 122 66 57 2 57 2 129 -89 28 -34
106 -81 156 -92 32 -7 33 -7 34 29 1 76 13 103 69 153 22 20 45 44 51 55 10
17 10 17 11 -2 0 -12 -18 -38 -40 -60 -57 -56 -74 -105 -61 -182 16 -103 80
-199 181 -274 48 -35 210 -118 240 -122 8 -2 20 -5 25 -9 15 -9 161 -46 215
-53 120 -18 186 -22 310 -18 162 4 160 4 160 15 0 5 5 6 10 3 32 -20 240 76
240 110 0 23 -69 74 -153 114 -87 41 -159 68 -407 151 -243 82 -396 163 -429
227 -18 36 -12 47 12 22 13 -13 34 -32 46 -42 31 -25 216 -117 235 -117 8 0
18 -5 22 -11 4 -7 24 -9 53 -5 42 5 71 12 181 45 40 12 212 108 222 124 5 8
19 8 50 0 57 -16 287 -7 317 12 15 8 120 19 193 20 79 0 83 7 37 60 -62 70
-138 94 -297 93 -64 -1 -130 -4 -146 -7 l-28 -6 31 -35 c23 -27 27 -38 18 -46
-17 -15 -131 -59 -192 -73 -115 -26 -171 -33 -274 -33 -199 0 -332 41 -499
154 -106 72 -136 81 -279 84 -149 3 -184 18 -234 96 -31 48 -74 101 -146 181
-61 67 -224 111 -353 94z m35 -37 c-4 -6 -11 -8 -16 -5 -14 9 -64 -24 -81 -54
-19 -31 -9 -64 22 -81 30 -16 99 -3 129 24 l24 21 -14 -22 c-31 -52 -129 -62
-166 -18 -13 14 -23 33 -23 42 0 24 30 68 59 86 29 18 76 23 66 7z m1 -61
c-19 -15 -24 -24 -16 -29 8 -5 4 -9 -9 -13 -37 -9 -19 37 24 60 31 18 31 6 1
-18z"/>
<path d="M1215 2139 c-4 -6 -5 -11 -3 -12 2 -1 17 -14 34 -30 30 -27 31 -27
68 -12 42 18 39 30 -10 51 -40 17 -80 18 -89 3z"/>
<path d="M1323 2075 c-18 -8 -33 -21 -33 -29 0 -23 93 -112 123 -118 14 -3 28
-4 30 -2 2 2 -2 36 -8 75 -8 57 -15 74 -30 80 -29 11 -46 10 -82 -6z"/>
<path d="M1476 2082 l-28 -4 5 -61 c9 -96 6 -94 97 -93 86 1 81 -2 83 61 1 27
-5 34 -63 65 -42 23 -75 34 -94 32z"/>
<path d="M1654 1963 c1 -38 5 -49 21 -52 17 -3 95 -47 166 -94 l26 -18 7 32
c15 75 11 83 -56 116 -52 26 -148 63 -162 63 -2 0 -3 -21 -2 -47z"/>
<path d="M1899 1867 c-9 -75 -2 -87 66 -118 35 -16 78 -30 96 -31 27 -3 32 1
36 22 2 14 1 44 -2 67 -6 41 -7 42 -73 65 -37 12 -79 24 -93 25 -23 2 -27 -2
-30 -30z"/>
<path d="M2121 1778 c-1 -33 -3 -64 -6 -68 -6 -10 57 -21 134 -24 51 -3 51 -3
51 28 0 18 -8 43 -17 56 -9 14 -17 26 -17 27 -1 1 -33 10 -72 21 l-71 20 -2
-60z"/>
<path d="M2316 1755 c8 -20 12 -40 9 -44 -8 -13 17 -29 40 -25 11 2 42 6 68 8
26 3 59 9 73 12 l26 7 -38 38 c-38 39 -39 39 -116 39 l-77 0 15 -35z"/>
<path d="M84 1547 c-33 -28 -39 -70 -13 -92 15 -14 41 -18 142 -19 176 -2 200
-21 166 -132 -10 -32 -16 -67 -13 -77 13 -41 73 -48 194 -23 118 24 138 15
145 -67 3 -31 10 -66 17 -77 27 -43 123 -58 218 -32 81 22 79 28 -8 26 -125
-4 -159 22 -165 126 -2 30 -9 65 -16 77 -27 52 -101 62 -196 28 -22 -8 -49
-13 -60 -11 -11 3 -23 5 -27 5 -5 1 -8 26 -8 57 0 32 -7 71 -17 91 -24 52 -58
62 -180 57 -85 -4 -107 -2 -129 12 -21 14 -25 23 -20 46 7 34 4 34 -30 5z"/>
<path d="M574 1538 c-16 -12 -30 -22 -31 -22 -1 -1 -4 -13 -8 -27 -4 -17 0
-33 13 -49 19 -23 26 -25 145 -26 158 -1 191 -13 203 -73 1 -8 -6 -41 -18 -74
-25 -72 -16 -101 34 -113 45 -11 48 -11 88 -3 19 5 49 11 65 14 17 4 51 8 77
11 63 6 86 -17 86 -88 1 -94 56 -134 171 -125 69 5 137 22 145 36 3 4 -27 7
-67 5 -40 -2 -88 2 -107 8 -35 11 -69 41 -71 62 -7 134 -20 169 -73 191 -38
16 -80 13 -156 -13 -30 -10 -65 -16 -77 -14 -24 4 -25 7 -27 82 -3 74 -23 113
-71 138 -12 6 -66 8 -135 6 -116 -5 -153 2 -164 33 -3 8 -1 24 5 35 16 29 6
31 -27 6z"/>
</g>
</svg>
